<svg xmlns="http://www.w3.org/2000/svg" version="1.1" xmlns:xlink="http://www.w3.org/1999/xlink" xmlns:svgjs="http://svgjs.dev/svgjs" viewBox="0 0 1422 800"><defs><linearGradient x1="50%" y1="0%" x2="50%" y2="100%" id="oooscillate-grad"><stop stop-color="hsl(184, 74%, 44%)" stop-opacity="1" offset="0%"></stop><stop stop-color="hsl(332, 87%, 70%)" stop-opacity="1" offset="100%"></stop></linearGradient></defs><g stroke-width="4.5" stroke="url(#oooscillate-grad)" fill="none" stroke-linecap="round"><path d="M 0 1887 Q 355.5 -100 711 400 Q 1066.5 900 1422 1887" stroke-dasharray="9 12" opacity="0.05"></path><path d="M 0 1870 Q 355.5 -100 711 400 Q 1066.5 900 1422 1870" stroke-dasharray="17 33" opacity="0.06"></path><path d="M 0 1853 Q 355.5 -100 711 400 Q 1066.5 900 1422 1853" stroke-dasharray="35 24" opacity="0.07"></path><path d="M 0 1836 Q 355.5 -100 711 400 Q 1066.5 900 1422 1836" stroke-dasharray="34 9" opacity="0.08"></path><path d="M 0 1819 Q 355.5 -100 711 400 Q 1066.5 900 1422 1819" stroke-dasharray="8 0" opacity="0.08"></path><path d="M 0 1802 Q 355.5 -100 711 400 Q 1066.5 900 1422 1802" stroke-dasharray="4 24" opacity="0.09"></path><path d="M 0 1785 Q 355.5 -100 711 400 Q 1066.5 900 1422 1785" stroke-dasharray="46 29" opacity="0.10"></path><path d="M 0 1768 Q 355.5 -100 711 400 Q 1066.5 900 1422 1768" stroke-dasharray="37 19" opacity="0.11"></path><path d="M 0 1751 Q 355.5 -100 711 400 Q 1066.5 900 1422 1751" stroke-dasharray="0 6" opacity="0.12"></path><path d="M 0 1734 Q 355.5 -100 711 400 Q 1066.5 900 1422 1734" stroke-dasharray="5 43" opacity="0.13"></path><path d="M 0 1717 Q 355.5 -100 711 400 Q 1066.5 900 1422 1717" stroke-dasharray="15 38" opacity="0.14"></path><path d="M 0 1700 Q 355.5 -100 711 400 Q 1066.5 900 1422 1700" stroke-dasharray="1 15" opacity="0.15"></path><path d="M 0 1683 Q 355.5 -100 711 400 Q 1066.5 900 1422 1683" stroke-dasharray="5 30" opacity="0.15"></path><path d="M 0 1666 Q 355.5 -100 711 400 Q 1066.5 900 1422 1666" stroke-dasharray="42 23" opacity="0.16"></path><path d="M 0 1649 Q 355.5 -100 711 400 Q 1066.5 900 1422 1649" stroke-dasharray="50 10" opacity="0.17"></path><path d="M 0 1632 Q 355.5 -100 711 400 Q 1066.5 900 1422 1632" stroke-dasharray="29 23" opacity="0.18"></path><path d="M 0 1615 Q 355.5 -100 711 400 Q 1066.5 900 1422 1615" stroke-dasharray="58 46" opacity="0.19"></path><path d="M 0 1598 Q 355.5 -100 711 400 Q 1066.5 900 1422 1598" stroke-dasharray="44 14" opacity="0.20"></path><path d="M 0 1581 Q 355.5 -100 711 400 Q 1066.5 900 1422 1581" stroke-dasharray="17 24" opacity="0.21"></path><path d="M 0 1564 Q 355.5 -100 711 400 Q 1066.5 900 1422 1564" stroke-dasharray="19 54" opacity="0.21"></path><path d="M 0 1547 Q 355.5 -100 711 400 Q 1066.5 900 1422 1547" stroke-dasharray="38 29" opacity="0.22"></path><path d="M 0 1530 Q 355.5 -100 711 400 Q 1066.5 900 1422 1530" stroke-dasharray="36 3" opacity="0.23"></path><path d="M 0 1513 Q 355.5 -100 711 400 Q 1066.5 900 1422 1513" stroke-dasharray="16 10" opacity="0.24"></path><path d="M 0 1496 Q 355.5 -100 711 400 Q 1066.5 900 1422 1496" stroke-dasharray="19 36" opacity="0.25"></path><path d="M 0 1479 Q 355.5 -100 711 400 Q 1066.5 900 1422 1479" stroke-dasharray="48 54" opacity="0.26"></path><path d="M 0 1462 Q 355.5 -100 711 400 Q 1066.5 900 1422 1462" stroke-dasharray="6 20" opacity="0.27"></path><path d="M 0 1445 Q 355.5 -100 711 400 Q 1066.5 900 1422 1445" stroke-dasharray="36 53" opacity="0.27"></path><path d="M 0 1428 Q 355.5 -100 711 400 Q 1066.5 900 1422 1428" stroke-dasharray="29 32" opacity="0.28"></path><path d="M 0 1411 Q 355.5 -100 711 400 Q 1066.5 900 1422 1411" stroke-dasharray="49 24" opacity="0.29"></path><path d="M 0 1394 Q 355.5 -100 711 400 Q 1066.5 900 1422 1394" stroke-dasharray="55 13" opacity="0.30"></path><path d="M 0 1377 Q 355.5 -100 711 400 Q 1066.5 900 1422 1377" stroke-dasharray="2 40" opacity="0.31"></path><path d="M 0 1360 Q 355.5 -100 711 400 Q 1066.5 900 1422 1360" stroke-dasharray="18 13" opacity="0.32"></path><path d="M 0 1343 Q 355.5 -100 711 400 Q 1066.5 900 1422 1343" stroke-dasharray="55 37" opacity="0.33"></path><path d="M 0 1326 Q 355.5 -100 711 400 Q 1066.5 900 1422 1326" stroke-dasharray="16 7" opacity="0.33"></path><path d="M 0 1309 Q 355.5 -100 711 400 Q 1066.5 900 1422 1309" stroke-dasharray="14 54" opacity="0.34"></path><path d="M 0 1292 Q 355.5 -100 711 400 Q 1066.5 900 1422 1292" stroke-dasharray="52 47" opacity="0.35"></path><path d="M 0 1275 Q 355.5 -100 711 400 Q 1066.5 900 1422 1275" stroke-dasharray="56 40" opacity="0.36"></path><path d="M 0 1258 Q 355.5 -100 711 400 Q 1066.5 900 1422 1258" stroke-dasharray="35 26" opacity="0.37"></path><path d="M 0 1241 Q 355.5 -100 711 400 Q 1066.5 900 1422 1241" stroke-dasharray="35 56" opacity="0.38"></path><path d="M 0 1224 Q 355.5 -100 711 400 Q 1066.5 900 1422 1224" stroke-dasharray="4 25" opacity="0.39"></path><path d="M 0 1207 Q 355.5 -100 711 400 Q 1066.5 900 1422 1207" stroke-dasharray="34 55" opacity="0.40"></path><path d="M 0 1190 Q 355.5 -100 711 400 Q 1066.5 900 1422 1190" stroke-dasharray="33 32" opacity="0.40"></path><path d="M 0 1173 Q 355.5 -100 711 400 Q 1066.5 900 1422 1173" stroke-dasharray="29 47" opacity="0.41"></path><path d="M 0 1156 Q 355.5 -100 711 400 Q 1066.5 900 1422 1156" stroke-dasharray="54 44" opacity="0.42"></path><path d="M 0 1139 Q 355.5 -100 711 400 Q 1066.5 900 1422 1139" stroke-dasharray="21 16" opacity="0.43"></path><path d="M 0 1122 Q 355.5 -100 711 400 Q 1066.5 900 1422 1122" stroke-dasharray="41 17" opacity="0.44"></path><path d="M 0 1105 Q 355.5 -100 711 400 Q 1066.5 900 1422 1105" stroke-dasharray="7 47" opacity="0.45"></path><path d="M 0 1088 Q 355.5 -100 711 400 Q 1066.5 900 1422 1088" stroke-dasharray="41 43" opacity="0.46"></path><path d="M 0 1071 Q 355.5 -100 711 400 Q 1066.5 900 1422 1071" stroke-dasharray="16 44" opacity="0.46"></path><path d="M 0 1054 Q 355.5 -100 711 400 Q 1066.5 900 1422 1054" stroke-dasharray="13 22" opacity="0.47"></path><path d="M 0 1037 Q 355.5 -100 711 400 Q 1066.5 900 1422 1037" stroke-dasharray="49 2" opacity="0.48"></path><path d="M 0 1020 Q 355.5 -100 711 400 Q 1066.5 900 1422 1020" stroke-dasharray="26 27" opacity="0.49"></path><path d="M 0 1003 Q 355.5 -100 711 400 Q 1066.5 900 1422 1003" stroke-dasharray="12 5" opacity="0.50"></path><path d="M 0 986 Q 355.5 -100 711 400 Q 1066.5 900 1422 986" stroke-dasharray="24 51" opacity="0.51"></path><path d="M 0 969 Q 355.5 -100 711 400 Q 1066.5 900 1422 969" stroke-dasharray="41 20" opacity="0.52"></path><path d="M 0 952 Q 355.5 -100 711 400 Q 1066.5 900 1422 952" stroke-dasharray="31 14" opacity="0.53"></path><path d="M 0 935 Q 355.5 -100 711 400 Q 1066.5 900 1422 935" stroke-dasharray="0 47" opacity="0.53"></path><path d="M 0 918 Q 355.5 -100 711 400 Q 1066.5 900 1422 918" stroke-dasharray="40 29" opacity="0.54"></path><path d="M 0 901 Q 355.5 -100 711 400 Q 1066.5 900 1422 901" stroke-dasharray="28 48" opacity="0.55"></path><path d="M 0 884 Q 355.5 -100 711 400 Q 1066.5 900 1422 884" stroke-dasharray="4 15" opacity="0.56"></path><path d="M 0 867 Q 355.5 -100 711 400 Q 1066.5 900 1422 867" stroke-dasharray="23 30" opacity="0.57"></path><path d="M 0 850 Q 355.5 -100 711 400 Q 1066.5 900 1422 850" stroke-dasharray="4 14" opacity="0.58"></path><path d="M 0 833 Q 355.5 -100 711 400 Q 1066.5 900 1422 833" stroke-dasharray="44 53" opacity="0.59"></path><path d="M 0 816 Q 355.5 -100 711 400 Q 1066.5 900 1422 816" stroke-dasharray="26 20" opacity="0.59"></path><path d="M 0 799 Q 355.5 -100 711 400 Q 1066.5 900 1422 799" stroke-dasharray="40 37" opacity="0.60"></path><path d="M 0 782 Q 355.5 -100 711 400 Q 1066.5 900 1422 782" stroke-dasharray="16 12" opacity="0.61"></path><path d="M 0 765 Q 355.5 -100 711 400 Q 1066.5 900 1422 765" stroke-dasharray="6 16" opacity="0.62"></path><path d="M 0 748 Q 355.5 -100 711 400 Q 1066.5 900 1422 748" stroke-dasharray="51 46" opacity="0.63"></path><path d="M 0 731 Q 355.5 -100 711 400 Q 1066.5 900 1422 731" stroke-dasharray="45 54" opacity="0.64"></path><path d="M 0 714 Q 355.5 -100 711 400 Q 1066.5 900 1422 714" stroke-dasharray="40 47" opacity="0.65"></path><path d="M 0 697 Q 355.5 -100 711 400 Q 1066.5 900 1422 697" stroke-dasharray="35 45" opacity="0.65"></path><path d="M 0 680 Q 355.5 -100 711 400 Q 1066.5 900 1422 680" stroke-dasharray="18 25" opacity="0.66"></path><path d="M 0 663 Q 355.5 -100 711 400 Q 1066.5 900 1422 663" stroke-dasharray="16 14" opacity="0.67"></path><path d="M 0 646 Q 355.5 -100 711 400 Q 1066.5 900 1422 646" stroke-dasharray="54 15" opacity="0.68"></path><path d="M 0 629 Q 355.5 -100 711 400 Q 1066.5 900 1422 629" stroke-dasharray="44 55" opacity="0.69"></path><path d="M 0 612 Q 355.5 -100 711 400 Q 1066.5 900 1422 612" stroke-dasharray="6 40" opacity="0.70"></path><path d="M 0 595 Q 355.5 -100 711 400 Q 1066.5 900 1422 595" stroke-dasharray="53 11" opacity="0.71"></path><path d="M 0 578 Q 355.5 -100 711 400 Q 1066.5 900 1422 578" stroke-dasharray="27 25" opacity="0.71"></path><path d="M 0 561 Q 355.5 -100 711 400 Q 1066.5 900 1422 561" stroke-dasharray="49 46" opacity="0.72"></path><path d="M 0 544 Q 355.5 -100 711 400 Q 1066.5 900 1422 544" stroke-dasharray="38 10" opacity="0.73"></path><path d="M 0 527 Q 355.5 -100 711 400 Q 1066.5 900 1422 527" stroke-dasharray="23 53" opacity="0.74"></path><path d="M 0 510 Q 355.5 -100 711 400 Q 1066.5 900 1422 510" stroke-dasharray="28 51" opacity="0.75"></path><path d="M 0 493 Q 355.5 -100 711 400 Q 1066.5 900 1422 493" stroke-dasharray="32 31" opacity="0.76"></path><path d="M 0 476 Q 355.5 -100 711 400 Q 1066.5 900 1422 476" stroke-dasharray="24 19" opacity="0.77"></path><path d="M 0 459 Q 355.5 -100 711 400 Q 1066.5 900 1422 459" stroke-dasharray="50 36" opacity="0.78"></path><path d="M 0 442 Q 355.5 -100 711 400 Q 1066.5 900 1422 442" stroke-dasharray="12 55" opacity="0.78"></path><path d="M 0 425 Q 355.5 -100 711 400 Q 1066.5 900 1422 425" stroke-dasharray="37 41" opacity="0.79"></path><path d="M 0 408 Q 355.5 -100 711 400 Q 1066.5 900 1422 408" stroke-dasharray="4 46" opacity="0.80"></path><path d="M 0 391 Q 355.5 -100 711 400 Q 1066.5 900 1422 391" stroke-dasharray="33 40" opacity="0.81"></path><path d="M 0 374 Q 355.5 -100 711 400 Q 1066.5 900 1422 374" stroke-dasharray="29 12" opacity="0.82"></path><path d="M 0 357 Q 355.5 -100 711 400 Q 1066.5 900 1422 357" stroke-dasharray="52 57" opacity="0.83"></path><path d="M 0 340 Q 355.5 -100 711 400 Q 1066.5 900 1422 340" stroke-dasharray="52 46" opacity="0.84"></path><path d="M 0 323 Q 355.5 -100 711 400 Q 1066.5 900 1422 323" stroke-dasharray="11 45" opacity="0.84"></path><path d="M 0 306 Q 355.5 -100 711 400 Q 1066.5 900 1422 306" stroke-dasharray="41 45" opacity="0.85"></path><path d="M 0 289 Q 355.5 -100 711 400 Q 1066.5 900 1422 289" stroke-dasharray="34 1" opacity="0.86"></path><path d="M 0 272 Q 355.5 -100 711 400 Q 1066.5 900 1422 272" stroke-dasharray="55 31" opacity="0.87"></path><path d="M 0 255 Q 355.5 -100 711 400 Q 1066.5 900 1422 255" stroke-dasharray="6 32" opacity="0.88"></path><path d="M 0 238 Q 355.5 -100 711 400 Q 1066.5 900 1422 238" stroke-dasharray="16 21" opacity="0.89"></path><path d="M 0 221 Q 355.5 -100 711 400 Q 1066.5 900 1422 221" stroke-dasharray="3 46" opacity="0.90"></path><path d="M 0 204 Q 355.5 -100 711 400 Q 1066.5 900 1422 204" stroke-dasharray="26 45" opacity="0.91"></path><path d="M 0 187 Q 355.5 -100 711 400 Q 1066.5 900 1422 187" stroke-dasharray="37 9" opacity="0.91"></path><path d="M 0 170 Q 355.5 -100 711 400 Q 1066.5 900 1422 170" stroke-dasharray="39 45" opacity="0.92"></path><path d="M 0 153 Q 355.5 -100 711 400 Q 1066.5 900 1422 153" stroke-dasharray="19 32" opacity="0.93"></path><path d="M 0 136 Q 355.5 -100 711 400 Q 1066.5 900 1422 136" stroke-dasharray="53 9" opacity="0.94"></path><path d="M 0 119 Q 355.5 -100 711 400 Q 1066.5 900 1422 119" stroke-dasharray="1 18" opacity="0.95"></path><path d="M 0 102 Q 355.5 -100 711 400 Q 1066.5 900 1422 102" stroke-dasharray="48 10" opacity="0.96"></path><path d="M 0 85 Q 355.5 -100 711 400 Q 1066.5 900 1422 85" stroke-dasharray="3 45" opacity="0.97"></path><path d="M 0 68 Q 355.5 -100 711 400 Q 1066.5 900 1422 68" stroke-dasharray="12 39" opacity="0.97"></path><path d="M 0 51 Q 355.5 -100 711 400 Q 1066.5 900 1422 51" stroke-dasharray="33 20" opacity="0.98"></path><path d="M 0 34 Q 355.5 -100 711 400 Q 1066.5 900 1422 34" stroke-dasharray="31 0" opacity="0.99"></path></g></svg>